%TF.GenerationSoftware,KiCad,Pcbnew,4.0.6*%
%TF.CreationDate,2017-10-26T23:28:33-04:00*%
%TF.ProjectId,ESP8285Lite,455350383238354C6974652E6B696361,rev?*%
%TF.FileFunction,Legend,Bot*%
%FSLAX46Y46*%
G04 Gerber Fmt 4.6, Leading zero omitted, Abs format (unit mm)*
G04 Created by KiCad (PCBNEW 4.0.6) date 10/26/17 23:28:33*
%MOMM*%
%LPD*%
G01*
G04 APERTURE LIST*
%ADD10C,0.127000*%
%ADD11C,0.200000*%
%ADD12C,0.120000*%
G04 APERTURE END LIST*
D10*
D11*
X148684619Y-117784571D02*
X148351285Y-117784571D01*
X148208428Y-118308381D02*
X148684619Y-118308381D01*
X148684619Y-117308381D01*
X148208428Y-117308381D01*
X147827476Y-118260762D02*
X147684619Y-118308381D01*
X147446523Y-118308381D01*
X147351285Y-118260762D01*
X147303666Y-118213143D01*
X147256047Y-118117905D01*
X147256047Y-118022667D01*
X147303666Y-117927429D01*
X147351285Y-117879810D01*
X147446523Y-117832190D01*
X147637000Y-117784571D01*
X147732238Y-117736952D01*
X147779857Y-117689333D01*
X147827476Y-117594095D01*
X147827476Y-117498857D01*
X147779857Y-117403619D01*
X147732238Y-117356000D01*
X147637000Y-117308381D01*
X147398904Y-117308381D01*
X147256047Y-117356000D01*
X146827476Y-118308381D02*
X146827476Y-117308381D01*
X146446523Y-117308381D01*
X146351285Y-117356000D01*
X146303666Y-117403619D01*
X146256047Y-117498857D01*
X146256047Y-117641714D01*
X146303666Y-117736952D01*
X146351285Y-117784571D01*
X146446523Y-117832190D01*
X146827476Y-117832190D01*
X145684619Y-117736952D02*
X145779857Y-117689333D01*
X145827476Y-117641714D01*
X145875095Y-117546476D01*
X145875095Y-117498857D01*
X145827476Y-117403619D01*
X145779857Y-117356000D01*
X145684619Y-117308381D01*
X145494142Y-117308381D01*
X145398904Y-117356000D01*
X145351285Y-117403619D01*
X145303666Y-117498857D01*
X145303666Y-117546476D01*
X145351285Y-117641714D01*
X145398904Y-117689333D01*
X145494142Y-117736952D01*
X145684619Y-117736952D01*
X145779857Y-117784571D01*
X145827476Y-117832190D01*
X145875095Y-117927429D01*
X145875095Y-118117905D01*
X145827476Y-118213143D01*
X145779857Y-118260762D01*
X145684619Y-118308381D01*
X145494142Y-118308381D01*
X145398904Y-118260762D01*
X145351285Y-118213143D01*
X145303666Y-118117905D01*
X145303666Y-117927429D01*
X145351285Y-117832190D01*
X145398904Y-117784571D01*
X145494142Y-117736952D01*
X144922714Y-117403619D02*
X144875095Y-117356000D01*
X144779857Y-117308381D01*
X144541761Y-117308381D01*
X144446523Y-117356000D01*
X144398904Y-117403619D01*
X144351285Y-117498857D01*
X144351285Y-117594095D01*
X144398904Y-117736952D01*
X144970333Y-118308381D01*
X144351285Y-118308381D01*
X143779857Y-117736952D02*
X143875095Y-117689333D01*
X143922714Y-117641714D01*
X143970333Y-117546476D01*
X143970333Y-117498857D01*
X143922714Y-117403619D01*
X143875095Y-117356000D01*
X143779857Y-117308381D01*
X143589380Y-117308381D01*
X143494142Y-117356000D01*
X143446523Y-117403619D01*
X143398904Y-117498857D01*
X143398904Y-117546476D01*
X143446523Y-117641714D01*
X143494142Y-117689333D01*
X143589380Y-117736952D01*
X143779857Y-117736952D01*
X143875095Y-117784571D01*
X143922714Y-117832190D01*
X143970333Y-117927429D01*
X143970333Y-118117905D01*
X143922714Y-118213143D01*
X143875095Y-118260762D01*
X143779857Y-118308381D01*
X143589380Y-118308381D01*
X143494142Y-118260762D01*
X143446523Y-118213143D01*
X143398904Y-118117905D01*
X143398904Y-117927429D01*
X143446523Y-117832190D01*
X143494142Y-117784571D01*
X143589380Y-117736952D01*
X142494142Y-117308381D02*
X142970333Y-117308381D01*
X143017952Y-117784571D01*
X142970333Y-117736952D01*
X142875095Y-117689333D01*
X142636999Y-117689333D01*
X142541761Y-117736952D01*
X142494142Y-117784571D01*
X142446523Y-117879810D01*
X142446523Y-118117905D01*
X142494142Y-118213143D01*
X142541761Y-118260762D01*
X142636999Y-118308381D01*
X142875095Y-118308381D01*
X142970333Y-118260762D01*
X143017952Y-118213143D01*
X141351285Y-117641714D02*
X141113190Y-118308381D01*
X140875094Y-117641714D01*
X140303666Y-117308381D02*
X140208427Y-117308381D01*
X140113189Y-117356000D01*
X140065570Y-117403619D01*
X140017951Y-117498857D01*
X139970332Y-117689333D01*
X139970332Y-117927429D01*
X140017951Y-118117905D01*
X140065570Y-118213143D01*
X140113189Y-118260762D01*
X140208427Y-118308381D01*
X140303666Y-118308381D01*
X140398904Y-118260762D01*
X140446523Y-118213143D01*
X140494142Y-118117905D01*
X140541761Y-117927429D01*
X140541761Y-117689333D01*
X140494142Y-117498857D01*
X140446523Y-117403619D01*
X140398904Y-117356000D01*
X140303666Y-117308381D01*
X139541761Y-118213143D02*
X139494142Y-118260762D01*
X139541761Y-118308381D01*
X139589380Y-118260762D01*
X139541761Y-118213143D01*
X139541761Y-118308381D01*
X139160809Y-117308381D02*
X138541761Y-117308381D01*
X138875095Y-117689333D01*
X138732237Y-117689333D01*
X138636999Y-117736952D01*
X138589380Y-117784571D01*
X138541761Y-117879810D01*
X138541761Y-118117905D01*
X138589380Y-118213143D01*
X138636999Y-118260762D01*
X138732237Y-118308381D01*
X139017952Y-118308381D01*
X139113190Y-118260762D01*
X139160809Y-118213143D01*
D12*
X140970000Y-116900000D02*
X148650000Y-116900000D01*
X148650000Y-116900000D02*
X148650000Y-111700000D01*
X148650000Y-111700000D02*
X138370000Y-111700000D01*
X138370000Y-111700000D02*
X138370000Y-114300000D01*
X138370000Y-114300000D02*
X140970000Y-114300000D01*
X140970000Y-114300000D02*
X140970000Y-116900000D01*
X139700000Y-116900000D02*
X138370000Y-116900000D01*
X138370000Y-116900000D02*
X138370000Y-115630000D01*
M02*
