%TF.GenerationSoftware,KiCad,Pcbnew,4.0.6*%
%TF.CreationDate,2017-10-26T23:28:33-04:00*%
%TF.ProjectId,ESP8285Lite,455350383238354C6974652E6B696361,rev?*%
%TF.FileFunction,Paste,Top*%
%FSLAX46Y46*%
G04 Gerber Fmt 4.6, Leading zero omitted, Abs format (unit mm)*
G04 Created by KiCad (PCBNEW 4.0.6) date 10/26/17 23:28:33*
%MOMM*%
%LPD*%
G01*
G04 APERTURE LIST*
%ADD10C,0.127000*%
%ADD11C,0.066040*%
%ADD12R,0.918220X0.918220*%
%ADD13C,1.799600*%
%ADD14R,0.707400X0.809000*%
%ADD15R,0.720000X1.520000*%
%ADD16R,0.204480X0.717560*%
%ADD17R,0.717560X0.204480*%
%ADD18R,3.069600X3.069600*%
%ADD19R,1.019820X0.918220*%
%ADD20R,2.119640X0.969020*%
%ADD21R,0.717560X0.918220*%
%ADD22R,0.918220X1.019820*%
%ADD23R,1.619260X0.519440*%
%ADD24R,1.019820X0.717560*%
G04 APERTURE END LIST*
D10*
D11*
X145478500Y-96276160D02*
X144180560Y-96276160D01*
X144180560Y-96276160D02*
X144180560Y-97574100D01*
X145478500Y-97574100D02*
X144180560Y-97574100D01*
X145478500Y-96276160D02*
X145478500Y-97574100D01*
X143880840Y-96276160D02*
X142582900Y-96276160D01*
X142582900Y-96276160D02*
X142582900Y-97574100D01*
X143880840Y-97574100D02*
X142582900Y-97574100D01*
X143880840Y-96276160D02*
X143880840Y-97574100D01*
X145478500Y-94678500D02*
X144180560Y-94678500D01*
X144180560Y-94678500D02*
X144180560Y-95976440D01*
X145478500Y-95976440D02*
X144180560Y-95976440D01*
X145478500Y-94678500D02*
X145478500Y-95976440D01*
X143880840Y-94678500D02*
X142582900Y-94678500D01*
X142582900Y-94678500D02*
X142582900Y-95976440D01*
X143880840Y-95976440D02*
X142582900Y-95976440D01*
X143880840Y-94678500D02*
X143880840Y-95976440D01*
D12*
X148729700Y-85852000D03*
X150482300Y-85852000D03*
D13*
X154940000Y-111760000D03*
X154940000Y-109220000D03*
X154940000Y-106680000D03*
X154940000Y-104140000D03*
X154940000Y-101600000D03*
X154940000Y-99060000D03*
X154940000Y-96520000D03*
X154940000Y-93980000D03*
X154940000Y-91440000D03*
X154940000Y-88900000D03*
X154940000Y-86360000D03*
D14*
X150205060Y-97083500D03*
X150205060Y-95686500D03*
X149117940Y-95686500D03*
X149117940Y-97083500D03*
D15*
X151735000Y-78740000D03*
X154335000Y-78740000D03*
D13*
X132080000Y-86360000D03*
X132080000Y-88900000D03*
X132080000Y-91440000D03*
X132080000Y-93980000D03*
X132080000Y-96520000D03*
X132080000Y-99060000D03*
X132080000Y-101600000D03*
X132080000Y-104140000D03*
X132080000Y-106680000D03*
X132080000Y-109220000D03*
X132080000Y-111760000D03*
D16*
X145778220Y-93626940D03*
X145280380Y-93626940D03*
X144780000Y-93626940D03*
X144279620Y-93626940D03*
X143781780Y-93626940D03*
X143281400Y-93626940D03*
X142781020Y-93626940D03*
X142283180Y-93626940D03*
D17*
X141531340Y-94378780D03*
X141531340Y-94876620D03*
X141531340Y-95377000D03*
X141531340Y-95877380D03*
X141531340Y-96375220D03*
X141531340Y-96875600D03*
X141531340Y-97375980D03*
X141531340Y-97873820D03*
D16*
X142283180Y-98625660D03*
X142781020Y-98625660D03*
X143281400Y-98625660D03*
X143781780Y-98625660D03*
X144279620Y-98625660D03*
X144780000Y-98625660D03*
X145280380Y-98625660D03*
X145778220Y-98625660D03*
D17*
X146530060Y-97873820D03*
X146530060Y-97375980D03*
X146530060Y-96875600D03*
X146530060Y-96375220D03*
X146530060Y-95877380D03*
X146530060Y-95377000D03*
X146530060Y-94876620D03*
X146530060Y-94378780D03*
D18*
X144030700Y-96126300D03*
D19*
X137073640Y-105410000D03*
X138770360Y-105410000D03*
X138516360Y-99568000D03*
X136819640Y-99568000D03*
X136438640Y-96139000D03*
X138135360Y-96139000D03*
X137073640Y-108712000D03*
X138770360Y-108712000D03*
X150573360Y-98900000D03*
X148876640Y-98900000D03*
X148800000Y-94100000D03*
X150496720Y-94100000D03*
X148757640Y-92000000D03*
X150454360Y-92000000D03*
X148757640Y-88646000D03*
X150454360Y-88646000D03*
X136311640Y-90424000D03*
X138008360Y-90424000D03*
X138008360Y-88646000D03*
X136311640Y-88646000D03*
D20*
X134620000Y-79905860D03*
X134620000Y-82654140D03*
D21*
X136144000Y-81280000D03*
D22*
X145288000Y-82717640D03*
X145288000Y-84414360D03*
D10*
G36*
X144764918Y-79120198D02*
X145414198Y-78470918D01*
X146135320Y-79192040D01*
X145486040Y-79841320D01*
X144764918Y-79120198D01*
X144764918Y-79120198D01*
G37*
G36*
X145964680Y-80319960D02*
X146613960Y-79670680D01*
X147335082Y-80391802D01*
X146685802Y-81041082D01*
X145964680Y-80319960D01*
X145964680Y-80319960D01*
G37*
G36*
X147955802Y-78470918D02*
X148605082Y-79120198D01*
X147883960Y-79841320D01*
X147234680Y-79192040D01*
X147955802Y-78470918D01*
X147955802Y-78470918D01*
G37*
G36*
X146756040Y-79670680D02*
X147405320Y-80319960D01*
X146684198Y-81041082D01*
X146034918Y-80391802D01*
X146756040Y-79670680D01*
X146756040Y-79670680D01*
G37*
D19*
X136438640Y-94234000D03*
X138135360Y-94234000D03*
D22*
X137160000Y-115991640D03*
X137160000Y-117688360D03*
D23*
X133350000Y-118587520D03*
X133350000Y-115092480D03*
D24*
X134998460Y-116840000D03*
M02*
