%TF.GenerationSoftware,KiCad,Pcbnew,4.0.6*%
%TF.CreationDate,2017-10-26T23:28:33-04:00*%
%TF.ProjectId,ESP8285Lite,455350383238354C6974652E6B696361,rev?*%
%TF.FileFunction,Legend,Top*%
%FSLAX46Y46*%
G04 Gerber Fmt 4.6, Leading zero omitted, Abs format (unit mm)*
G04 Created by KiCad (PCBNEW 4.0.6) date 10/26/17 23:28:33*
%MOMM*%
%LPD*%
G01*
G04 APERTURE LIST*
%ADD10C,0.127000*%
%ADD11C,0.200000*%
%ADD12C,0.175000*%
%ADD13C,0.150000*%
%ADD14C,0.381000*%
%ADD15C,0.066040*%
%ADD16C,0.203200*%
%ADD17C,0.099060*%
%ADD18C,0.100000*%
%ADD19C,0.050000*%
G04 APERTURE END LIST*
D10*
D11*
X147772381Y-111156666D02*
X147296190Y-111490000D01*
X147772381Y-111728095D02*
X146772381Y-111728095D01*
X146772381Y-111347142D01*
X146820000Y-111251904D01*
X146867619Y-111204285D01*
X146962857Y-111156666D01*
X147105714Y-111156666D01*
X147200952Y-111204285D01*
X147248571Y-111251904D01*
X147296190Y-111347142D01*
X147296190Y-111728095D01*
X146772381Y-110823333D02*
X147772381Y-110156666D01*
X146772381Y-110156666D02*
X147772381Y-110823333D01*
X147772381Y-109775714D02*
X146772381Y-109775714D01*
X146772381Y-109537619D01*
X146820000Y-109394761D01*
X146915238Y-109299523D01*
X147010476Y-109251904D01*
X147200952Y-109204285D01*
X147343810Y-109204285D01*
X147534286Y-109251904D01*
X147629524Y-109299523D01*
X147724762Y-109394761D01*
X147772381Y-109537619D01*
X147772381Y-109775714D01*
X144280000Y-111204190D02*
X144232381Y-111299428D01*
X144232381Y-111442285D01*
X144280000Y-111585143D01*
X144375238Y-111680381D01*
X144470476Y-111728000D01*
X144660952Y-111775619D01*
X144803810Y-111775619D01*
X144994286Y-111728000D01*
X145089524Y-111680381D01*
X145184762Y-111585143D01*
X145232381Y-111442285D01*
X145232381Y-111347047D01*
X145184762Y-111204190D01*
X145137143Y-111156571D01*
X144803810Y-111156571D01*
X144803810Y-111347047D01*
X145232381Y-110728000D02*
X144232381Y-110728000D01*
X144232381Y-110347047D01*
X144280000Y-110251809D01*
X144327619Y-110204190D01*
X144422857Y-110156571D01*
X144565714Y-110156571D01*
X144660952Y-110204190D01*
X144708571Y-110251809D01*
X144756190Y-110347047D01*
X144756190Y-110728000D01*
X145232381Y-109728000D02*
X144232381Y-109728000D01*
X144232381Y-109061334D02*
X144232381Y-108870857D01*
X144280000Y-108775619D01*
X144375238Y-108680381D01*
X144565714Y-108632762D01*
X144899048Y-108632762D01*
X145089524Y-108680381D01*
X145184762Y-108775619D01*
X145232381Y-108870857D01*
X145232381Y-109061334D01*
X145184762Y-109156572D01*
X145089524Y-109251810D01*
X144899048Y-109299429D01*
X144565714Y-109299429D01*
X144375238Y-109251810D01*
X144280000Y-109156572D01*
X144232381Y-109061334D01*
X144232381Y-108013715D02*
X144232381Y-107918476D01*
X144280000Y-107823238D01*
X144327619Y-107775619D01*
X144422857Y-107728000D01*
X144613333Y-107680381D01*
X144851429Y-107680381D01*
X145041905Y-107728000D01*
X145137143Y-107775619D01*
X145184762Y-107823238D01*
X145232381Y-107918476D01*
X145232381Y-108013715D01*
X145184762Y-108108953D01*
X145137143Y-108156572D01*
X145041905Y-108204191D01*
X144851429Y-108251810D01*
X144613333Y-108251810D01*
X144422857Y-108204191D01*
X144327619Y-108156572D01*
X144280000Y-108108953D01*
X144232381Y-108013715D01*
X141740000Y-111331190D02*
X141692381Y-111426428D01*
X141692381Y-111569285D01*
X141740000Y-111712143D01*
X141835238Y-111807381D01*
X141930476Y-111855000D01*
X142120952Y-111902619D01*
X142263810Y-111902619D01*
X142454286Y-111855000D01*
X142549524Y-111807381D01*
X142644762Y-111712143D01*
X142692381Y-111569285D01*
X142692381Y-111474047D01*
X142644762Y-111331190D01*
X142597143Y-111283571D01*
X142263810Y-111283571D01*
X142263810Y-111474047D01*
X142692381Y-110855000D02*
X141692381Y-110855000D01*
X141692381Y-110474047D01*
X141740000Y-110378809D01*
X141787619Y-110331190D01*
X141882857Y-110283571D01*
X142025714Y-110283571D01*
X142120952Y-110331190D01*
X142168571Y-110378809D01*
X142216190Y-110474047D01*
X142216190Y-110855000D01*
X142692381Y-109855000D02*
X141692381Y-109855000D01*
X141692381Y-109188334D02*
X141692381Y-108997857D01*
X141740000Y-108902619D01*
X141835238Y-108807381D01*
X142025714Y-108759762D01*
X142359048Y-108759762D01*
X142549524Y-108807381D01*
X142644762Y-108902619D01*
X142692381Y-108997857D01*
X142692381Y-109188334D01*
X142644762Y-109283572D01*
X142549524Y-109378810D01*
X142359048Y-109426429D01*
X142025714Y-109426429D01*
X141835238Y-109378810D01*
X141740000Y-109283572D01*
X141692381Y-109188334D01*
X141787619Y-108378810D02*
X141740000Y-108331191D01*
X141692381Y-108235953D01*
X141692381Y-107997857D01*
X141740000Y-107902619D01*
X141787619Y-107855000D01*
X141882857Y-107807381D01*
X141978095Y-107807381D01*
X142120952Y-107855000D01*
X142692381Y-108426429D01*
X142692381Y-107807381D01*
X139200000Y-111251904D02*
X139152381Y-111347142D01*
X139152381Y-111489999D01*
X139200000Y-111632857D01*
X139295238Y-111728095D01*
X139390476Y-111775714D01*
X139580952Y-111823333D01*
X139723810Y-111823333D01*
X139914286Y-111775714D01*
X140009524Y-111728095D01*
X140104762Y-111632857D01*
X140152381Y-111489999D01*
X140152381Y-111394761D01*
X140104762Y-111251904D01*
X140057143Y-111204285D01*
X139723810Y-111204285D01*
X139723810Y-111394761D01*
X140152381Y-110775714D02*
X139152381Y-110775714D01*
X140152381Y-110204285D01*
X139152381Y-110204285D01*
X140152381Y-109728095D02*
X139152381Y-109728095D01*
X139152381Y-109490000D01*
X139200000Y-109347142D01*
X139295238Y-109251904D01*
X139390476Y-109204285D01*
X139580952Y-109156666D01*
X139723810Y-109156666D01*
X139914286Y-109204285D01*
X140009524Y-109251904D01*
X140104762Y-109347142D01*
X140152381Y-109490000D01*
X140152381Y-109728095D01*
X139152381Y-119117905D02*
X139152381Y-118546476D01*
X140152381Y-118832191D02*
X139152381Y-118832191D01*
X139152381Y-118308381D02*
X140152381Y-117641714D01*
X139152381Y-117641714D02*
X140152381Y-118308381D01*
X140152381Y-117260762D02*
X139152381Y-117260762D01*
X139152381Y-117022667D01*
X139200000Y-116879809D01*
X139295238Y-116784571D01*
X139390476Y-116736952D01*
X139580952Y-116689333D01*
X139723810Y-116689333D01*
X139914286Y-116736952D01*
X140009524Y-116784571D01*
X140104762Y-116879809D01*
X140152381Y-117022667D01*
X140152381Y-117260762D01*
X142597143Y-118665476D02*
X142644762Y-118713095D01*
X142692381Y-118855952D01*
X142692381Y-118951190D01*
X142644762Y-119094048D01*
X142549524Y-119189286D01*
X142454286Y-119236905D01*
X142263810Y-119284524D01*
X142120952Y-119284524D01*
X141930476Y-119236905D01*
X141835238Y-119189286D01*
X141740000Y-119094048D01*
X141692381Y-118951190D01*
X141692381Y-118855952D01*
X141740000Y-118713095D01*
X141787619Y-118665476D01*
X142692381Y-118236905D02*
X141692381Y-118236905D01*
X142168571Y-118236905D02*
X142168571Y-117665476D01*
X142692381Y-117665476D02*
X141692381Y-117665476D01*
X142168571Y-117189286D02*
X142168571Y-116855952D01*
X142692381Y-116713095D02*
X142692381Y-117189286D01*
X141692381Y-117189286D01*
X141692381Y-116713095D01*
X142692381Y-116284524D02*
X141692381Y-116284524D01*
X142692381Y-115713095D01*
X141692381Y-115713095D01*
X146772381Y-119094095D02*
X146772381Y-118475047D01*
X147153333Y-118808381D01*
X147153333Y-118665523D01*
X147200952Y-118570285D01*
X147248571Y-118522666D01*
X147343810Y-118475047D01*
X147581905Y-118475047D01*
X147677143Y-118522666D01*
X147724762Y-118570285D01*
X147772381Y-118665523D01*
X147772381Y-118951238D01*
X147724762Y-119046476D01*
X147677143Y-119094095D01*
X146772381Y-118189333D02*
X147772381Y-117856000D01*
X146772381Y-117522666D01*
X146772381Y-117284571D02*
X146772381Y-116665523D01*
X147153333Y-116998857D01*
X147153333Y-116855999D01*
X147200952Y-116760761D01*
X147248571Y-116713142D01*
X147343810Y-116665523D01*
X147581905Y-116665523D01*
X147677143Y-116713142D01*
X147724762Y-116760761D01*
X147772381Y-116855999D01*
X147772381Y-117141714D01*
X147724762Y-117236952D01*
X147677143Y-117284571D01*
X145232381Y-118403619D02*
X144756190Y-118736953D01*
X145232381Y-118975048D02*
X144232381Y-118975048D01*
X144232381Y-118594095D01*
X144280000Y-118498857D01*
X144327619Y-118451238D01*
X144422857Y-118403619D01*
X144565714Y-118403619D01*
X144660952Y-118451238D01*
X144708571Y-118498857D01*
X144756190Y-118594095D01*
X144756190Y-118975048D01*
X145184762Y-118022667D02*
X145232381Y-117879810D01*
X145232381Y-117641714D01*
X145184762Y-117546476D01*
X145137143Y-117498857D01*
X145041905Y-117451238D01*
X144946667Y-117451238D01*
X144851429Y-117498857D01*
X144803810Y-117546476D01*
X144756190Y-117641714D01*
X144708571Y-117832191D01*
X144660952Y-117927429D01*
X144613333Y-117975048D01*
X144518095Y-118022667D01*
X144422857Y-118022667D01*
X144327619Y-117975048D01*
X144280000Y-117927429D01*
X144232381Y-117832191D01*
X144232381Y-117594095D01*
X144280000Y-117451238D01*
X144232381Y-117165524D02*
X144232381Y-116594095D01*
X145232381Y-116879810D02*
X144232381Y-116879810D01*
X133461095Y-86812381D02*
X133461095Y-85812381D01*
X134032524Y-86812381D01*
X134032524Y-85812381D01*
X135080143Y-86717143D02*
X135032524Y-86764762D01*
X134889667Y-86812381D01*
X134794429Y-86812381D01*
X134651571Y-86764762D01*
X134556333Y-86669524D01*
X134508714Y-86574286D01*
X134461095Y-86383810D01*
X134461095Y-86240952D01*
X134508714Y-86050476D01*
X134556333Y-85955238D01*
X134651571Y-85860000D01*
X134794429Y-85812381D01*
X134889667Y-85812381D01*
X135032524Y-85860000D01*
X135080143Y-85907619D01*
X133413476Y-89352381D02*
X133413476Y-88352381D01*
X133946809Y-88352381D02*
X134099190Y-88352381D01*
X134175381Y-88400000D01*
X134251571Y-88495238D01*
X134289666Y-88685714D01*
X134289666Y-89019048D01*
X134251571Y-89209524D01*
X134175381Y-89304762D01*
X134099190Y-89352381D01*
X133946809Y-89352381D01*
X133870619Y-89304762D01*
X133794428Y-89209524D01*
X133756333Y-89019048D01*
X133756333Y-88685714D01*
X133794428Y-88495238D01*
X133870619Y-88400000D01*
X133946809Y-88352381D01*
X134670618Y-89352381D02*
X134822999Y-89352381D01*
X134899190Y-89304762D01*
X134937285Y-89257143D01*
X135013476Y-89114286D01*
X135051571Y-88923810D01*
X135051571Y-88542857D01*
X135013476Y-88447619D01*
X134975380Y-88400000D01*
X134899190Y-88352381D01*
X134746809Y-88352381D01*
X134670618Y-88400000D01*
X134632523Y-88447619D01*
X134594428Y-88542857D01*
X134594428Y-88780952D01*
X134632523Y-88876190D01*
X134670618Y-88923810D01*
X134746809Y-88971429D01*
X134899190Y-88971429D01*
X134975380Y-88923810D01*
X135013476Y-88876190D01*
X135051571Y-88780952D01*
D12*
X133389667Y-91892381D02*
X133389667Y-90892381D01*
X133856333Y-90892381D02*
X133989666Y-90892381D01*
X134056333Y-90940000D01*
X134123000Y-91035238D01*
X134156333Y-91225714D01*
X134156333Y-91559048D01*
X134123000Y-91749524D01*
X134056333Y-91844762D01*
X133989666Y-91892381D01*
X133856333Y-91892381D01*
X133789666Y-91844762D01*
X133723000Y-91749524D01*
X133689666Y-91559048D01*
X133689666Y-91225714D01*
X133723000Y-91035238D01*
X133789666Y-90940000D01*
X133856333Y-90892381D01*
X134822999Y-91892381D02*
X134422999Y-91892381D01*
X134622999Y-91892381D02*
X134622999Y-90892381D01*
X134556333Y-91035238D01*
X134489666Y-91130476D01*
X134422999Y-91178095D01*
X135256333Y-90892381D02*
X135323000Y-90892381D01*
X135389666Y-90940000D01*
X135423000Y-90987619D01*
X135456333Y-91082857D01*
X135489666Y-91273333D01*
X135489666Y-91511429D01*
X135456333Y-91701905D01*
X135423000Y-91797143D01*
X135389666Y-91844762D01*
X135323000Y-91892381D01*
X135256333Y-91892381D01*
X135189666Y-91844762D01*
X135156333Y-91797143D01*
X135123000Y-91701905D01*
X135089666Y-91511429D01*
X135089666Y-91273333D01*
X135123000Y-91082857D01*
X135156333Y-90987619D01*
X135189666Y-90940000D01*
X135256333Y-90892381D01*
D11*
X133337286Y-111212381D02*
X133832524Y-111212381D01*
X133565857Y-111593333D01*
X133680143Y-111593333D01*
X133756333Y-111640952D01*
X133794429Y-111688571D01*
X133832524Y-111783810D01*
X133832524Y-112021905D01*
X133794429Y-112117143D01*
X133756333Y-112164762D01*
X133680143Y-112212381D01*
X133451571Y-112212381D01*
X133375381Y-112164762D01*
X133337286Y-112117143D01*
X134061095Y-111212381D02*
X134327762Y-112212381D01*
X134594429Y-111212381D01*
X134784905Y-111212381D02*
X135280143Y-111212381D01*
X135013476Y-111593333D01*
X135127762Y-111593333D01*
X135203952Y-111640952D01*
X135242048Y-111688571D01*
X135280143Y-111783810D01*
X135280143Y-112021905D01*
X135242048Y-112117143D01*
X135203952Y-112164762D01*
X135127762Y-112212381D01*
X134899190Y-112212381D01*
X134823000Y-112164762D01*
X134784905Y-112117143D01*
X133540476Y-109672381D02*
X133540476Y-108672381D01*
X134073809Y-108672381D02*
X134226190Y-108672381D01*
X134302381Y-108720000D01*
X134378571Y-108815238D01*
X134416666Y-109005714D01*
X134416666Y-109339048D01*
X134378571Y-109529524D01*
X134302381Y-109624762D01*
X134226190Y-109672381D01*
X134073809Y-109672381D01*
X133997619Y-109624762D01*
X133921428Y-109529524D01*
X133883333Y-109339048D01*
X133883333Y-109005714D01*
X133921428Y-108815238D01*
X133997619Y-108720000D01*
X134073809Y-108672381D01*
X135178571Y-109672381D02*
X134721428Y-109672381D01*
X134949999Y-109672381D02*
X134949999Y-108672381D01*
X134873809Y-108815238D01*
X134797618Y-108910476D01*
X134721428Y-108958095D01*
X135902381Y-108672381D02*
X135521428Y-108672381D01*
X135483333Y-109148571D01*
X135521428Y-109100952D01*
X135597619Y-109053333D01*
X135788095Y-109053333D01*
X135864285Y-109100952D01*
X135902381Y-109148571D01*
X135940476Y-109243810D01*
X135940476Y-109481905D01*
X135902381Y-109577143D01*
X135864285Y-109624762D01*
X135788095Y-109672381D01*
X135597619Y-109672381D01*
X135521428Y-109624762D01*
X135483333Y-109577143D01*
D13*
X133365857Y-107132381D02*
X133365857Y-106132381D01*
X133765857Y-106132381D02*
X133880143Y-106132381D01*
X133937285Y-106180000D01*
X133994428Y-106275238D01*
X134023000Y-106465714D01*
X134023000Y-106799048D01*
X133994428Y-106989524D01*
X133937285Y-107084762D01*
X133880143Y-107132381D01*
X133765857Y-107132381D01*
X133708714Y-107084762D01*
X133651571Y-106989524D01*
X133623000Y-106799048D01*
X133623000Y-106465714D01*
X133651571Y-106275238D01*
X133708714Y-106180000D01*
X133765857Y-106132381D01*
X134594428Y-107132381D02*
X134251571Y-107132381D01*
X134422999Y-107132381D02*
X134422999Y-106132381D01*
X134365856Y-106275238D01*
X134308714Y-106370476D01*
X134251571Y-106418095D01*
X134794428Y-106132381D02*
X135165857Y-106132381D01*
X134965857Y-106513333D01*
X135051571Y-106513333D01*
X135108714Y-106560952D01*
X135137285Y-106608571D01*
X135165857Y-106703810D01*
X135165857Y-106941905D01*
X135137285Y-107037143D01*
X135108714Y-107084762D01*
X135051571Y-107132381D01*
X134880143Y-107132381D01*
X134823000Y-107084762D01*
X134794428Y-107037143D01*
D11*
X133413476Y-104592381D02*
X133413476Y-103592381D01*
X133946809Y-103592381D02*
X134099190Y-103592381D01*
X134175381Y-103640000D01*
X134251571Y-103735238D01*
X134289666Y-103925714D01*
X134289666Y-104259048D01*
X134251571Y-104449524D01*
X134175381Y-104544762D01*
X134099190Y-104592381D01*
X133946809Y-104592381D01*
X133870619Y-104544762D01*
X133794428Y-104449524D01*
X133756333Y-104259048D01*
X133756333Y-103925714D01*
X133794428Y-103735238D01*
X133870619Y-103640000D01*
X133946809Y-103592381D01*
X135051571Y-104592381D02*
X134594428Y-104592381D01*
X134822999Y-104592381D02*
X134822999Y-103592381D01*
X134746809Y-103735238D01*
X134670618Y-103830476D01*
X134594428Y-103878095D01*
X135356333Y-103687619D02*
X135394428Y-103640000D01*
X135470619Y-103592381D01*
X135661095Y-103592381D01*
X135737285Y-103640000D01*
X135775381Y-103687619D01*
X135813476Y-103782857D01*
X135813476Y-103878095D01*
X135775381Y-104020952D01*
X135318238Y-104592381D01*
X135813476Y-104592381D01*
X133540476Y-102052381D02*
X133540476Y-101052381D01*
X134073809Y-101052381D02*
X134226190Y-101052381D01*
X134302381Y-101100000D01*
X134378571Y-101195238D01*
X134416666Y-101385714D01*
X134416666Y-101719048D01*
X134378571Y-101909524D01*
X134302381Y-102004762D01*
X134226190Y-102052381D01*
X134073809Y-102052381D01*
X133997619Y-102004762D01*
X133921428Y-101909524D01*
X133883333Y-101719048D01*
X133883333Y-101385714D01*
X133921428Y-101195238D01*
X133997619Y-101100000D01*
X134073809Y-101052381D01*
X135178571Y-102052381D02*
X134721428Y-102052381D01*
X134949999Y-102052381D02*
X134949999Y-101052381D01*
X134873809Y-101195238D01*
X134797618Y-101290476D01*
X134721428Y-101338095D01*
X135864285Y-101385714D02*
X135864285Y-102052381D01*
X135673809Y-101004762D02*
X135483333Y-101719048D01*
X135978571Y-101719048D01*
X133413476Y-99512381D02*
X133413476Y-98512381D01*
X133946809Y-98512381D02*
X134099190Y-98512381D01*
X134175381Y-98560000D01*
X134251571Y-98655238D01*
X134289666Y-98845714D01*
X134289666Y-99179048D01*
X134251571Y-99369524D01*
X134175381Y-99464762D01*
X134099190Y-99512381D01*
X133946809Y-99512381D01*
X133870619Y-99464762D01*
X133794428Y-99369524D01*
X133756333Y-99179048D01*
X133756333Y-98845714D01*
X133794428Y-98655238D01*
X133870619Y-98560000D01*
X133946809Y-98512381D01*
X135051571Y-99512381D02*
X134594428Y-99512381D01*
X134822999Y-99512381D02*
X134822999Y-98512381D01*
X134746809Y-98655238D01*
X134670618Y-98750476D01*
X134594428Y-98798095D01*
X135737285Y-98512381D02*
X135584904Y-98512381D01*
X135508714Y-98560000D01*
X135470619Y-98607619D01*
X135394428Y-98750476D01*
X135356333Y-98940952D01*
X135356333Y-99321905D01*
X135394428Y-99417143D01*
X135432523Y-99464762D01*
X135508714Y-99512381D01*
X135661095Y-99512381D01*
X135737285Y-99464762D01*
X135775381Y-99417143D01*
X135813476Y-99321905D01*
X135813476Y-99083810D01*
X135775381Y-98988571D01*
X135737285Y-98940952D01*
X135661095Y-98893333D01*
X135508714Y-98893333D01*
X135432523Y-98940952D01*
X135394428Y-98988571D01*
X135356333Y-99083810D01*
X133413476Y-96686667D02*
X133889667Y-96686667D01*
X133318238Y-96972381D02*
X133651571Y-95972381D01*
X133984905Y-96972381D01*
X134508714Y-95972381D02*
X134603953Y-95972381D01*
X134699191Y-96020000D01*
X134746810Y-96067619D01*
X134794429Y-96162857D01*
X134842048Y-96353333D01*
X134842048Y-96591429D01*
X134794429Y-96781905D01*
X134746810Y-96877143D01*
X134699191Y-96924762D01*
X134603953Y-96972381D01*
X134508714Y-96972381D01*
X134413476Y-96924762D01*
X134365857Y-96877143D01*
X134318238Y-96781905D01*
X134270619Y-96591429D01*
X134270619Y-96353333D01*
X134318238Y-96162857D01*
X134365857Y-96067619D01*
X134413476Y-96020000D01*
X134508714Y-95972381D01*
X133870619Y-94432381D02*
X133603952Y-93956190D01*
X133413476Y-94432381D02*
X133413476Y-93432381D01*
X133718238Y-93432381D01*
X133794429Y-93480000D01*
X133832524Y-93527619D01*
X133870619Y-93622857D01*
X133870619Y-93765714D01*
X133832524Y-93860952D01*
X133794429Y-93908571D01*
X133718238Y-93956190D01*
X133413476Y-93956190D01*
X134175381Y-94384762D02*
X134289667Y-94432381D01*
X134480143Y-94432381D01*
X134556333Y-94384762D01*
X134594429Y-94337143D01*
X134632524Y-94241905D01*
X134632524Y-94146667D01*
X134594429Y-94051429D01*
X134556333Y-94003810D01*
X134480143Y-93956190D01*
X134327762Y-93908571D01*
X134251571Y-93860952D01*
X134213476Y-93813333D01*
X134175381Y-93718095D01*
X134175381Y-93622857D01*
X134213476Y-93527619D01*
X134251571Y-93480000D01*
X134327762Y-93432381D01*
X134518238Y-93432381D01*
X134632524Y-93480000D01*
X134861095Y-93432381D02*
X135318238Y-93432381D01*
X135089667Y-94432381D02*
X135089667Y-93432381D01*
X152114476Y-112212381D02*
X152114476Y-111212381D01*
X152685905Y-112212381D01*
X152685905Y-111212381D01*
X153733524Y-112117143D02*
X153685905Y-112164762D01*
X153543048Y-112212381D01*
X153447810Y-112212381D01*
X153304952Y-112164762D01*
X153209714Y-112069524D01*
X153162095Y-111974286D01*
X153114476Y-111783810D01*
X153114476Y-111640952D01*
X153162095Y-111450476D01*
X153209714Y-111355238D01*
X153304952Y-111260000D01*
X153447810Y-111212381D01*
X153543048Y-111212381D01*
X153685905Y-111260000D01*
X153733524Y-111307619D01*
X151876381Y-108720000D02*
X151781143Y-108672381D01*
X151638286Y-108672381D01*
X151495428Y-108720000D01*
X151400190Y-108815238D01*
X151352571Y-108910476D01*
X151304952Y-109100952D01*
X151304952Y-109243810D01*
X151352571Y-109434286D01*
X151400190Y-109529524D01*
X151495428Y-109624762D01*
X151638286Y-109672381D01*
X151733524Y-109672381D01*
X151876381Y-109624762D01*
X151924000Y-109577143D01*
X151924000Y-109243810D01*
X151733524Y-109243810D01*
X152352571Y-109005714D02*
X152352571Y-109672381D01*
X152352571Y-109100952D02*
X152400190Y-109053333D01*
X152495428Y-109005714D01*
X152638286Y-109005714D01*
X152733524Y-109053333D01*
X152781143Y-109148571D01*
X152781143Y-109672381D01*
X153685905Y-109672381D02*
X153685905Y-108672381D01*
X153685905Y-109624762D02*
X153590667Y-109672381D01*
X153400190Y-109672381D01*
X153304952Y-109624762D01*
X153257333Y-109577143D01*
X153209714Y-109481905D01*
X153209714Y-109196190D01*
X153257333Y-109100952D01*
X153304952Y-109053333D01*
X153400190Y-109005714D01*
X153590667Y-109005714D01*
X153685905Y-109053333D01*
X151685905Y-107132381D02*
X151685905Y-106132381D01*
X152352571Y-106132381D02*
X152543048Y-106132381D01*
X152638286Y-106180000D01*
X152733524Y-106275238D01*
X152781143Y-106465714D01*
X152781143Y-106799048D01*
X152733524Y-106989524D01*
X152638286Y-107084762D01*
X152543048Y-107132381D01*
X152352571Y-107132381D01*
X152257333Y-107084762D01*
X152162095Y-106989524D01*
X152114476Y-106799048D01*
X152114476Y-106465714D01*
X152162095Y-106275238D01*
X152257333Y-106180000D01*
X152352571Y-106132381D01*
X153162095Y-106227619D02*
X153209714Y-106180000D01*
X153304952Y-106132381D01*
X153543048Y-106132381D01*
X153638286Y-106180000D01*
X153685905Y-106227619D01*
X153733524Y-106322857D01*
X153733524Y-106418095D01*
X153685905Y-106560952D01*
X153114476Y-107132381D01*
X153733524Y-107132381D01*
X151685905Y-104592381D02*
X151685905Y-103592381D01*
X152352571Y-103592381D02*
X152543048Y-103592381D01*
X152638286Y-103640000D01*
X152733524Y-103735238D01*
X152781143Y-103925714D01*
X152781143Y-104259048D01*
X152733524Y-104449524D01*
X152638286Y-104544762D01*
X152543048Y-104592381D01*
X152352571Y-104592381D01*
X152257333Y-104544762D01*
X152162095Y-104449524D01*
X152114476Y-104259048D01*
X152114476Y-103925714D01*
X152162095Y-103735238D01*
X152257333Y-103640000D01*
X152352571Y-103592381D01*
X153400190Y-103592381D02*
X153495429Y-103592381D01*
X153590667Y-103640000D01*
X153638286Y-103687619D01*
X153685905Y-103782857D01*
X153733524Y-103973333D01*
X153733524Y-104211429D01*
X153685905Y-104401905D01*
X153638286Y-104497143D01*
X153590667Y-104544762D01*
X153495429Y-104592381D01*
X153400190Y-104592381D01*
X153304952Y-104544762D01*
X153257333Y-104497143D01*
X153209714Y-104401905D01*
X153162095Y-104211429D01*
X153162095Y-103973333D01*
X153209714Y-103782857D01*
X153257333Y-103687619D01*
X153304952Y-103640000D01*
X153400190Y-103592381D01*
X151685905Y-102052381D02*
X151685905Y-101052381D01*
X152352571Y-101052381D02*
X152543048Y-101052381D01*
X152638286Y-101100000D01*
X152733524Y-101195238D01*
X152781143Y-101385714D01*
X152781143Y-101719048D01*
X152733524Y-101909524D01*
X152638286Y-102004762D01*
X152543048Y-102052381D01*
X152352571Y-102052381D01*
X152257333Y-102004762D01*
X152162095Y-101909524D01*
X152114476Y-101719048D01*
X152114476Y-101385714D01*
X152162095Y-101195238D01*
X152257333Y-101100000D01*
X152352571Y-101052381D01*
X153638286Y-101385714D02*
X153638286Y-102052381D01*
X153400190Y-101004762D02*
X153162095Y-101719048D01*
X153781143Y-101719048D01*
X151685905Y-99512381D02*
X151685905Y-98512381D01*
X152352571Y-98512381D02*
X152543048Y-98512381D01*
X152638286Y-98560000D01*
X152733524Y-98655238D01*
X152781143Y-98845714D01*
X152781143Y-99179048D01*
X152733524Y-99369524D01*
X152638286Y-99464762D01*
X152543048Y-99512381D01*
X152352571Y-99512381D01*
X152257333Y-99464762D01*
X152162095Y-99369524D01*
X152114476Y-99179048D01*
X152114476Y-98845714D01*
X152162095Y-98655238D01*
X152257333Y-98560000D01*
X152352571Y-98512381D01*
X153685905Y-98512381D02*
X153209714Y-98512381D01*
X153162095Y-98988571D01*
X153209714Y-98940952D01*
X153304952Y-98893333D01*
X153543048Y-98893333D01*
X153638286Y-98940952D01*
X153685905Y-98988571D01*
X153733524Y-99083810D01*
X153733524Y-99321905D01*
X153685905Y-99417143D01*
X153638286Y-99464762D01*
X153543048Y-99512381D01*
X153304952Y-99512381D01*
X153209714Y-99464762D01*
X153162095Y-99417143D01*
X152781143Y-96972381D02*
X152447809Y-96496190D01*
X152209714Y-96972381D02*
X152209714Y-95972381D01*
X152590667Y-95972381D01*
X152685905Y-96020000D01*
X152733524Y-96067619D01*
X152781143Y-96162857D01*
X152781143Y-96305714D01*
X152733524Y-96400952D01*
X152685905Y-96448571D01*
X152590667Y-96496190D01*
X152209714Y-96496190D01*
X153114476Y-95972381D02*
X153781143Y-96972381D01*
X153781143Y-95972381D02*
X153114476Y-96972381D01*
X152304952Y-93432381D02*
X152876381Y-93432381D01*
X152590666Y-94432381D02*
X152590666Y-93432381D01*
X153114476Y-93432381D02*
X153781143Y-94432381D01*
X153781143Y-93432381D02*
X153114476Y-94432381D01*
X152114476Y-91892381D02*
X152114476Y-90892381D01*
X152685905Y-91892381D01*
X152685905Y-90892381D01*
X153733524Y-91797143D02*
X153685905Y-91844762D01*
X153543048Y-91892381D01*
X153447810Y-91892381D01*
X153304952Y-91844762D01*
X153209714Y-91749524D01*
X153162095Y-91654286D01*
X153114476Y-91463810D01*
X153114476Y-91320952D01*
X153162095Y-91130476D01*
X153209714Y-91035238D01*
X153304952Y-90940000D01*
X153447810Y-90892381D01*
X153543048Y-90892381D01*
X153685905Y-90940000D01*
X153733524Y-90987619D01*
X152114476Y-89352381D02*
X152114476Y-88352381D01*
X152685905Y-89352381D01*
X152685905Y-88352381D01*
X153733524Y-89257143D02*
X153685905Y-89304762D01*
X153543048Y-89352381D01*
X153447810Y-89352381D01*
X153304952Y-89304762D01*
X153209714Y-89209524D01*
X153162095Y-89114286D01*
X153114476Y-88923810D01*
X153114476Y-88780952D01*
X153162095Y-88590476D01*
X153209714Y-88495238D01*
X153304952Y-88400000D01*
X153447810Y-88352381D01*
X153543048Y-88352381D01*
X153685905Y-88400000D01*
X153733524Y-88447619D01*
X152114476Y-86812381D02*
X152114476Y-85812381D01*
X152685905Y-86812381D01*
X152685905Y-85812381D01*
X153733524Y-86717143D02*
X153685905Y-86764762D01*
X153543048Y-86812381D01*
X153447810Y-86812381D01*
X153304952Y-86764762D01*
X153209714Y-86669524D01*
X153162095Y-86574286D01*
X153114476Y-86383810D01*
X153114476Y-86240952D01*
X153162095Y-86050476D01*
X153209714Y-85955238D01*
X153304952Y-85860000D01*
X153447810Y-85812381D01*
X153543048Y-85812381D01*
X153685905Y-85860000D01*
X153733524Y-85907619D01*
D10*
X151193500Y-85377020D02*
X151193500Y-86326980D01*
X155448000Y-111760000D02*
G75*
G03X155448000Y-111760000I-508000J0D01*
G01*
X155892500Y-111760000D02*
G75*
G03X155892500Y-111760000I-952500J0D01*
G01*
X155892500Y-109220000D02*
G75*
G03X155892500Y-109220000I-952500J0D01*
G01*
X155892500Y-106680000D02*
G75*
G03X155892500Y-106680000I-952500J0D01*
G01*
X155892500Y-104140000D02*
G75*
G03X155892500Y-104140000I-952500J0D01*
G01*
X155892500Y-101600000D02*
G75*
G03X155892500Y-101600000I-952500J0D01*
G01*
X155892500Y-99060000D02*
G75*
G03X155892500Y-99060000I-952500J0D01*
G01*
X155892500Y-96520000D02*
G75*
G03X155892500Y-96520000I-952500J0D01*
G01*
X155892500Y-93980000D02*
G75*
G03X155892500Y-93980000I-952500J0D01*
G01*
X155892500Y-91440000D02*
G75*
G03X155892500Y-91440000I-952500J0D01*
G01*
X155892500Y-88900000D02*
G75*
G03X155892500Y-88900000I-952500J0D01*
G01*
X155892500Y-86360000D02*
G75*
G03X155892500Y-86360000I-952500J0D01*
G01*
X155448000Y-109220000D02*
G75*
G03X155448000Y-109220000I-508000J0D01*
G01*
X155448000Y-106680000D02*
G75*
G03X155448000Y-106680000I-508000J0D01*
G01*
X155448000Y-104140000D02*
G75*
G03X155448000Y-104140000I-508000J0D01*
G01*
X155448000Y-101600000D02*
G75*
G03X155448000Y-101600000I-508000J0D01*
G01*
X155448000Y-99060000D02*
G75*
G03X155448000Y-99060000I-508000J0D01*
G01*
X155448000Y-96520000D02*
G75*
G03X155448000Y-96520000I-508000J0D01*
G01*
X155448000Y-93980000D02*
G75*
G03X155448000Y-93980000I-508000J0D01*
G01*
X155448000Y-91440000D02*
G75*
G03X155448000Y-91440000I-508000J0D01*
G01*
X155448000Y-88900000D02*
G75*
G03X155448000Y-88900000I-508000J0D01*
G01*
X155448000Y-86360000D02*
G75*
G03X155448000Y-86360000I-508000J0D01*
G01*
X148836000Y-97413700D02*
X148836000Y-95356300D01*
X150487000Y-97413700D02*
X150487000Y-95356300D01*
X148886800Y-97413700D02*
X150436200Y-97413700D01*
X148886800Y-95356300D02*
X150436200Y-95356300D01*
X149979000Y-96512000D02*
G75*
G03X149979000Y-96512000I-63500J0D01*
G01*
X152305000Y-77880000D02*
X152305000Y-79580000D01*
X152305000Y-79580000D02*
X153785000Y-79580000D01*
X153785000Y-79580000D02*
X153785000Y-77880000D01*
X153785000Y-77880000D02*
X152305000Y-77880000D01*
D14*
G36*
X152400000Y-78613000D02*
X152781000Y-78613000D01*
X152781000Y-78740000D01*
X152400000Y-78740000D01*
X152400000Y-78613000D01*
G37*
X152400000Y-78613000D02*
X152781000Y-78613000D01*
X152781000Y-78740000D01*
X152400000Y-78740000D01*
X152400000Y-78613000D01*
D10*
X146530060Y-98224340D02*
X146530060Y-98625660D01*
X146530060Y-98625660D02*
X146128740Y-98625660D01*
X141932660Y-98625660D02*
X141531340Y-98625660D01*
X141531340Y-98625660D02*
X141531340Y-98224340D01*
X141531340Y-94028260D02*
X141531340Y-93626940D01*
X141531340Y-93626940D02*
X141932660Y-93626940D01*
X146530060Y-94028260D02*
X146128740Y-93626940D01*
X146847560Y-93444060D02*
G75*
G03X146847560Y-93444060I-99060J0D01*
G01*
D15*
X137723880Y-105709720D02*
X138120120Y-105709720D01*
X138120120Y-105709720D02*
X138120120Y-105110280D01*
X137723880Y-105110280D02*
X138120120Y-105110280D01*
X137723880Y-105709720D02*
X137723880Y-105110280D01*
X137866120Y-99268280D02*
X137469880Y-99268280D01*
X137469880Y-99268280D02*
X137469880Y-99867720D01*
X137866120Y-99867720D02*
X137469880Y-99867720D01*
X137866120Y-99268280D02*
X137866120Y-99867720D01*
X137088880Y-96438720D02*
X137485120Y-96438720D01*
X137485120Y-96438720D02*
X137485120Y-95839280D01*
X137088880Y-95839280D02*
X137485120Y-95839280D01*
X137088880Y-96438720D02*
X137088880Y-95839280D01*
X137723880Y-109011720D02*
X138120120Y-109011720D01*
X138120120Y-109011720D02*
X138120120Y-108412280D01*
X137723880Y-108412280D02*
X138120120Y-108412280D01*
X137723880Y-109011720D02*
X137723880Y-108412280D01*
X149923120Y-98600280D02*
X149526880Y-98600280D01*
X149526880Y-98600280D02*
X149526880Y-99199720D01*
X149923120Y-99199720D02*
X149526880Y-99199720D01*
X149923120Y-98600280D02*
X149923120Y-99199720D01*
X149450240Y-94399720D02*
X149846480Y-94399720D01*
X149846480Y-94399720D02*
X149846480Y-93800280D01*
X149450240Y-93800280D02*
X149846480Y-93800280D01*
X149450240Y-94399720D02*
X149450240Y-93800280D01*
X149407880Y-92299720D02*
X149804120Y-92299720D01*
X149804120Y-92299720D02*
X149804120Y-91700280D01*
X149407880Y-91700280D02*
X149804120Y-91700280D01*
X149407880Y-92299720D02*
X149407880Y-91700280D01*
X149407880Y-88945720D02*
X149804120Y-88945720D01*
X149804120Y-88945720D02*
X149804120Y-88346280D01*
X149407880Y-88346280D02*
X149804120Y-88346280D01*
X149407880Y-88945720D02*
X149407880Y-88346280D01*
X136961880Y-90723720D02*
X137358120Y-90723720D01*
X137358120Y-90723720D02*
X137358120Y-90124280D01*
X136961880Y-90124280D02*
X137358120Y-90124280D01*
X136961880Y-90723720D02*
X136961880Y-90124280D01*
X137358120Y-88346280D02*
X136961880Y-88346280D01*
X136961880Y-88346280D02*
X136961880Y-88945720D01*
X137358120Y-88945720D02*
X136961880Y-88945720D01*
X137358120Y-88346280D02*
X137358120Y-88945720D01*
X133731000Y-82105500D02*
X135509000Y-82105500D01*
X135509000Y-82105500D02*
X135509000Y-80454500D01*
X133731000Y-80454500D02*
X135509000Y-80454500D01*
X133731000Y-82105500D02*
X133731000Y-80454500D01*
D16*
X135917940Y-80581500D02*
X135917940Y-79181960D01*
X135917940Y-79181960D02*
X133322060Y-79181960D01*
X133322060Y-83378040D02*
X135917940Y-83378040D01*
X135917940Y-83378040D02*
X135917940Y-81978500D01*
X133322060Y-80581500D02*
X133322060Y-79181960D01*
X133322060Y-83378040D02*
X133322060Y-81978500D01*
X136019540Y-80581500D02*
X136019540Y-79281020D01*
X136019540Y-83278980D02*
X136019540Y-81978500D01*
X136118600Y-80581500D02*
X136118600Y-79181960D01*
X136118600Y-83378040D02*
X136118600Y-81978500D01*
X136118600Y-79181960D02*
X135917940Y-79181960D01*
X136118600Y-80581500D02*
X135917940Y-80581500D01*
X136118600Y-81978500D02*
X135917940Y-81978500D01*
X136118600Y-83378040D02*
X135917940Y-83378040D01*
D15*
X144988280Y-83367880D02*
X144988280Y-83764120D01*
X144988280Y-83764120D02*
X145587720Y-83764120D01*
X145587720Y-83367880D02*
X145587720Y-83764120D01*
X144988280Y-83367880D02*
X145587720Y-83367880D01*
X145697974Y-79827842D02*
X145978158Y-80108026D01*
X145978158Y-80108026D02*
X146402026Y-79684158D01*
X146121842Y-79403974D02*
X146402026Y-79684158D01*
X145697974Y-79827842D02*
X146121842Y-79403974D01*
X147248158Y-79403974D02*
X146967974Y-79684158D01*
X146967974Y-79684158D02*
X147391842Y-80108026D01*
X147672026Y-79827842D02*
X147391842Y-80108026D01*
X147248158Y-79403974D02*
X147672026Y-79827842D01*
X137088880Y-94533720D02*
X137485120Y-94533720D01*
X137485120Y-94533720D02*
X137485120Y-93934280D01*
X137088880Y-93934280D02*
X137485120Y-93934280D01*
X137088880Y-94533720D02*
X137088880Y-93934280D01*
X136860280Y-116641880D02*
X136860280Y-117038120D01*
X136860280Y-117038120D02*
X137459720Y-117038120D01*
X137459720Y-116641880D02*
X137459720Y-117038120D01*
X136860280Y-116641880D02*
X137459720Y-116641880D01*
X134048500Y-118838980D02*
X134048500Y-118338600D01*
X134048500Y-118338600D02*
X132651500Y-118338600D01*
X132651500Y-118838980D02*
X132651500Y-118338600D01*
X134048500Y-118838980D02*
X132651500Y-118838980D01*
X134048500Y-115341400D02*
X134048500Y-114841020D01*
X134048500Y-114841020D02*
X132651500Y-114841020D01*
X132651500Y-115341400D02*
X132651500Y-114841020D01*
X134048500Y-115341400D02*
X132651500Y-115341400D01*
X135249920Y-117088920D02*
X135249920Y-116591080D01*
X135249920Y-116591080D02*
X134599680Y-116591080D01*
X134599680Y-117088920D02*
X134599680Y-116591080D01*
X135249920Y-117088920D02*
X134599680Y-117088920D01*
D17*
X132100320Y-118338600D02*
X132100320Y-115341400D01*
X132100320Y-115341400D02*
X134599680Y-115341400D01*
X134599680Y-115341400D02*
X134599680Y-118338600D01*
X134599680Y-118338600D02*
X132100320Y-118338600D01*
X134099300Y-116840000D02*
G75*
G03X134099300Y-116840000I-749300J0D01*
G01*
D10*
X149029058Y-85187971D02*
X149029058Y-84578371D01*
X149174201Y-84578371D01*
X149261286Y-84607400D01*
X149319344Y-84665457D01*
X149348372Y-84723514D01*
X149377401Y-84839629D01*
X149377401Y-84926714D01*
X149348372Y-85042829D01*
X149319344Y-85100886D01*
X149261286Y-85158943D01*
X149174201Y-85187971D01*
X149029058Y-85187971D01*
X149609629Y-84636429D02*
X149638658Y-84607400D01*
X149696715Y-84578371D01*
X149841858Y-84578371D01*
X149899915Y-84607400D01*
X149928944Y-84636429D01*
X149957972Y-84694486D01*
X149957972Y-84752543D01*
X149928944Y-84839629D01*
X149580601Y-85187971D01*
X149957972Y-85187971D01*
D18*
X150895095Y-98019134D02*
X150857000Y-97985800D01*
X150818905Y-97919134D01*
X150818905Y-97752467D01*
X150857000Y-97685800D01*
X150895095Y-97652467D01*
X150971286Y-97619134D01*
X151047476Y-97619134D01*
X151161762Y-97652467D01*
X151618905Y-98052467D01*
X151618905Y-97619134D01*
X150818905Y-97019133D02*
X150818905Y-97152467D01*
X150857000Y-97219133D01*
X150895095Y-97252467D01*
X151009381Y-97319133D01*
X151161762Y-97352467D01*
X151466524Y-97352467D01*
X151542714Y-97319133D01*
X151580810Y-97285800D01*
X151618905Y-97219133D01*
X151618905Y-97085800D01*
X151580810Y-97019133D01*
X151542714Y-96985800D01*
X151466524Y-96952467D01*
X151276048Y-96952467D01*
X151199857Y-96985800D01*
X151161762Y-97019133D01*
X151123667Y-97085800D01*
X151123667Y-97219133D01*
X151161762Y-97285800D01*
X151199857Y-97319133D01*
X151276048Y-97352467D01*
X151618905Y-96652466D02*
X150818905Y-96652466D01*
X151390333Y-96419133D01*
X150818905Y-96185800D01*
X151618905Y-96185800D01*
X151618905Y-95852466D02*
X150818905Y-95852466D01*
X151199857Y-95852466D02*
X151199857Y-95452466D01*
X151618905Y-95452466D02*
X150818905Y-95452466D01*
X151085571Y-95185800D02*
X151085571Y-94819133D01*
X151618905Y-95185800D01*
X151618905Y-94819133D01*
D19*
X151415952Y-81065667D02*
X151892143Y-81065667D01*
X151320714Y-81351381D02*
X151654047Y-80351381D01*
X151987381Y-81351381D01*
X152320714Y-81351381D02*
X152320714Y-80351381D01*
X152892143Y-81351381D01*
X152892143Y-80351381D01*
X153225476Y-80351381D02*
X153796905Y-80351381D01*
X153511190Y-81351381D02*
X153511190Y-80351381D01*
X154654048Y-81351381D02*
X154082619Y-81351381D01*
X154368333Y-81351381D02*
X154368333Y-80351381D01*
X154273095Y-80494238D01*
X154177857Y-80589476D01*
X154082619Y-80637095D01*
D10*
X137820401Y-104618971D02*
X137617201Y-104328686D01*
X137472058Y-104618971D02*
X137472058Y-104009371D01*
X137704286Y-104009371D01*
X137762344Y-104038400D01*
X137791372Y-104067429D01*
X137820401Y-104125486D01*
X137820401Y-104212571D01*
X137791372Y-104270629D01*
X137762344Y-104299657D01*
X137704286Y-104328686D01*
X137472058Y-104328686D01*
X138023601Y-104009371D02*
X138430001Y-104009371D01*
X138168744Y-104618971D01*
X137276115Y-100910571D02*
X137072915Y-100620286D01*
X136927772Y-100910571D02*
X136927772Y-100300971D01*
X137160000Y-100300971D01*
X137218058Y-100330000D01*
X137247086Y-100359029D01*
X137276115Y-100417086D01*
X137276115Y-100504171D01*
X137247086Y-100562229D01*
X137218058Y-100591257D01*
X137160000Y-100620286D01*
X136927772Y-100620286D01*
X137856686Y-100910571D02*
X137508343Y-100910571D01*
X137682515Y-100910571D02*
X137682515Y-100300971D01*
X137624458Y-100388057D01*
X137566400Y-100446114D01*
X137508343Y-100475143D01*
X138379200Y-100504171D02*
X138379200Y-100910571D01*
X138234057Y-100271943D02*
X138088914Y-100707371D01*
X138466286Y-100707371D01*
X137185401Y-95467714D02*
X137156372Y-95496743D01*
X137069286Y-95525771D01*
X137011229Y-95525771D01*
X136924144Y-95496743D01*
X136866086Y-95438686D01*
X136837058Y-95380629D01*
X136808029Y-95264514D01*
X136808029Y-95177429D01*
X136837058Y-95061314D01*
X136866086Y-95003257D01*
X136924144Y-94945200D01*
X137011229Y-94916171D01*
X137069286Y-94916171D01*
X137156372Y-94945200D01*
X137185401Y-94974229D01*
X137388601Y-94916171D02*
X137795001Y-94916171D01*
X137533744Y-95525771D01*
X137820401Y-107920971D02*
X137617201Y-107630686D01*
X137472058Y-107920971D02*
X137472058Y-107311371D01*
X137704286Y-107311371D01*
X137762344Y-107340400D01*
X137791372Y-107369429D01*
X137820401Y-107427486D01*
X137820401Y-107514571D01*
X137791372Y-107572629D01*
X137762344Y-107601657D01*
X137704286Y-107630686D01*
X137472058Y-107630686D01*
X138110686Y-107920971D02*
X138226801Y-107920971D01*
X138284858Y-107891943D01*
X138313886Y-107862914D01*
X138371944Y-107775829D01*
X138400972Y-107659714D01*
X138400972Y-107427486D01*
X138371944Y-107369429D01*
X138342915Y-107340400D01*
X138284858Y-107311371D01*
X138168744Y-107311371D01*
X138110686Y-107340400D01*
X138081658Y-107369429D01*
X138052629Y-107427486D01*
X138052629Y-107572629D01*
X138081658Y-107630686D01*
X138110686Y-107659714D01*
X138168744Y-107688743D01*
X138284858Y-107688743D01*
X138342915Y-107659714D01*
X138371944Y-107630686D01*
X138400972Y-107572629D01*
X149623401Y-100184514D02*
X149594372Y-100213543D01*
X149507286Y-100242571D01*
X149449229Y-100242571D01*
X149362144Y-100213543D01*
X149304086Y-100155486D01*
X149275058Y-100097429D01*
X149246029Y-99981314D01*
X149246029Y-99894229D01*
X149275058Y-99778114D01*
X149304086Y-99720057D01*
X149362144Y-99662000D01*
X149449229Y-99632971D01*
X149507286Y-99632971D01*
X149594372Y-99662000D01*
X149623401Y-99691029D01*
X150174944Y-99632971D02*
X149884658Y-99632971D01*
X149855629Y-99923257D01*
X149884658Y-99894229D01*
X149942715Y-99865200D01*
X150087858Y-99865200D01*
X150145915Y-99894229D01*
X150174944Y-99923257D01*
X150203972Y-99981314D01*
X150203972Y-100126457D01*
X150174944Y-100184514D01*
X150145915Y-100213543D01*
X150087858Y-100242571D01*
X149942715Y-100242571D01*
X149884658Y-100213543D01*
X149855629Y-100184514D01*
X149546761Y-93250914D02*
X149517732Y-93279943D01*
X149430646Y-93308971D01*
X149372589Y-93308971D01*
X149285504Y-93279943D01*
X149227446Y-93221886D01*
X149198418Y-93163829D01*
X149169389Y-93047714D01*
X149169389Y-92960629D01*
X149198418Y-92844514D01*
X149227446Y-92786457D01*
X149285504Y-92728400D01*
X149372589Y-92699371D01*
X149430646Y-92699371D01*
X149517732Y-92728400D01*
X149546761Y-92757429D01*
X150069275Y-92699371D02*
X149953161Y-92699371D01*
X149895104Y-92728400D01*
X149866075Y-92757429D01*
X149808018Y-92844514D01*
X149778989Y-92960629D01*
X149778989Y-93192857D01*
X149808018Y-93250914D01*
X149837046Y-93279943D01*
X149895104Y-93308971D01*
X150011218Y-93308971D01*
X150069275Y-93279943D01*
X150098304Y-93250914D01*
X150127332Y-93192857D01*
X150127332Y-93047714D01*
X150098304Y-92989657D01*
X150069275Y-92960629D01*
X150011218Y-92931600D01*
X149895104Y-92931600D01*
X149837046Y-92960629D01*
X149808018Y-92989657D01*
X149778989Y-93047714D01*
X149504401Y-91208971D02*
X149301201Y-90918686D01*
X149156058Y-91208971D02*
X149156058Y-90599371D01*
X149388286Y-90599371D01*
X149446344Y-90628400D01*
X149475372Y-90657429D01*
X149504401Y-90715486D01*
X149504401Y-90802571D01*
X149475372Y-90860629D01*
X149446344Y-90889657D01*
X149388286Y-90918686D01*
X149156058Y-90918686D01*
X149736629Y-90657429D02*
X149765658Y-90628400D01*
X149823715Y-90599371D01*
X149968858Y-90599371D01*
X150026915Y-90628400D01*
X150055944Y-90657429D01*
X150084972Y-90715486D01*
X150084972Y-90773543D01*
X150055944Y-90860629D01*
X149707601Y-91208971D01*
X150084972Y-91208971D01*
X149214115Y-87854971D02*
X149010915Y-87564686D01*
X148865772Y-87854971D02*
X148865772Y-87245371D01*
X149098000Y-87245371D01*
X149156058Y-87274400D01*
X149185086Y-87303429D01*
X149214115Y-87361486D01*
X149214115Y-87448571D01*
X149185086Y-87506629D01*
X149156058Y-87535657D01*
X149098000Y-87564686D01*
X148865772Y-87564686D01*
X149794686Y-87854971D02*
X149446343Y-87854971D01*
X149620515Y-87854971D02*
X149620515Y-87245371D01*
X149562458Y-87332457D01*
X149504400Y-87390514D01*
X149446343Y-87419543D01*
X150346229Y-87245371D02*
X150055943Y-87245371D01*
X150026914Y-87535657D01*
X150055943Y-87506629D01*
X150114000Y-87477600D01*
X150259143Y-87477600D01*
X150317200Y-87506629D01*
X150346229Y-87535657D01*
X150375257Y-87593714D01*
X150375257Y-87738857D01*
X150346229Y-87796914D01*
X150317200Y-87825943D01*
X150259143Y-87854971D01*
X150114000Y-87854971D01*
X150055943Y-87825943D01*
X150026914Y-87796914D01*
X136768115Y-91715771D02*
X136564915Y-91425486D01*
X136419772Y-91715771D02*
X136419772Y-91106171D01*
X136652000Y-91106171D01*
X136710058Y-91135200D01*
X136739086Y-91164229D01*
X136768115Y-91222286D01*
X136768115Y-91309371D01*
X136739086Y-91367429D01*
X136710058Y-91396457D01*
X136652000Y-91425486D01*
X136419772Y-91425486D01*
X137348686Y-91715771D02*
X137000343Y-91715771D01*
X137174515Y-91715771D02*
X137174515Y-91106171D01*
X137116458Y-91193257D01*
X137058400Y-91251314D01*
X137000343Y-91280343D01*
X137929257Y-91715771D02*
X137580914Y-91715771D01*
X137755086Y-91715771D02*
X137755086Y-91106171D01*
X137697029Y-91193257D01*
X137638971Y-91251314D01*
X137580914Y-91280343D01*
X136641115Y-87905771D02*
X136437915Y-87615486D01*
X136292772Y-87905771D02*
X136292772Y-87296171D01*
X136525000Y-87296171D01*
X136583058Y-87325200D01*
X136612086Y-87354229D01*
X136641115Y-87412286D01*
X136641115Y-87499371D01*
X136612086Y-87557429D01*
X136583058Y-87586457D01*
X136525000Y-87615486D01*
X136292772Y-87615486D01*
X137221686Y-87905771D02*
X136873343Y-87905771D01*
X137047515Y-87905771D02*
X137047515Y-87296171D01*
X136989458Y-87383257D01*
X136931400Y-87441314D01*
X136873343Y-87470343D01*
X137453914Y-87354229D02*
X137482943Y-87325200D01*
X137541000Y-87296171D01*
X137686143Y-87296171D01*
X137744200Y-87325200D01*
X137773229Y-87354229D01*
X137802257Y-87412286D01*
X137802257Y-87470343D01*
X137773229Y-87557429D01*
X137424886Y-87905771D01*
X137802257Y-87905771D01*
X146572514Y-83667599D02*
X146601543Y-83696628D01*
X146630571Y-83783714D01*
X146630571Y-83841771D01*
X146601543Y-83928856D01*
X146543486Y-83986914D01*
X146485429Y-84015942D01*
X146369314Y-84044971D01*
X146282229Y-84044971D01*
X146166114Y-84015942D01*
X146108057Y-83986914D01*
X146050000Y-83928856D01*
X146020971Y-83841771D01*
X146020971Y-83783714D01*
X146050000Y-83696628D01*
X146079029Y-83667599D01*
X146630571Y-83377314D02*
X146630571Y-83261199D01*
X146601543Y-83203142D01*
X146572514Y-83174114D01*
X146485429Y-83116056D01*
X146369314Y-83087028D01*
X146137086Y-83087028D01*
X146079029Y-83116056D01*
X146050000Y-83145085D01*
X146020971Y-83203142D01*
X146020971Y-83319256D01*
X146050000Y-83377314D01*
X146079029Y-83406342D01*
X146137086Y-83435371D01*
X146282229Y-83435371D01*
X146340286Y-83406342D01*
X146369314Y-83377314D01*
X146398343Y-83319256D01*
X146398343Y-83203142D01*
X146369314Y-83145085D01*
X146340286Y-83116056D01*
X146282229Y-83087028D01*
X146537501Y-79124816D02*
X146599080Y-78775870D01*
X146291185Y-78878501D02*
X146722238Y-78447448D01*
X146886448Y-78611658D01*
X146906974Y-78673238D01*
X146906974Y-78714291D01*
X146886448Y-78775870D01*
X146824869Y-78837448D01*
X146763290Y-78857975D01*
X146722238Y-78857975D01*
X146660658Y-78837448D01*
X146496448Y-78673238D01*
X147030132Y-79124817D02*
X147009605Y-79063237D01*
X147009606Y-79022185D01*
X147030132Y-78960606D01*
X147050658Y-78940080D01*
X147112237Y-78919554D01*
X147153289Y-78919553D01*
X147214869Y-78940080D01*
X147296974Y-79022185D01*
X147317500Y-79083764D01*
X147317500Y-79124817D01*
X147296973Y-79186395D01*
X147276447Y-79206921D01*
X147214869Y-79227448D01*
X147173816Y-79227448D01*
X147112237Y-79206922D01*
X147030132Y-79124817D01*
X146968553Y-79104290D01*
X146927500Y-79104290D01*
X146865921Y-79124816D01*
X146783816Y-79206921D01*
X146763290Y-79268500D01*
X146763290Y-79309553D01*
X146783817Y-79371132D01*
X146865922Y-79453237D01*
X146927500Y-79473763D01*
X146968553Y-79473763D01*
X147030132Y-79453237D01*
X147112237Y-79371132D01*
X147132763Y-79309554D01*
X147132763Y-79268500D01*
X147112237Y-79206922D01*
X144546449Y-80151132D02*
X144977501Y-79720079D01*
X145080133Y-79822711D01*
X145121184Y-79904816D01*
X145121185Y-79986922D01*
X145100658Y-80048500D01*
X145039079Y-80151132D01*
X144977501Y-80212711D01*
X144874869Y-80274290D01*
X144813290Y-80294817D01*
X144731185Y-80294816D01*
X144649080Y-80253763D01*
X144546449Y-80151132D01*
X144977501Y-80582184D02*
X145408553Y-80151132D01*
X145223817Y-80828500D01*
X145654869Y-80397447D01*
X145429080Y-81033763D02*
X145860132Y-80602711D01*
X146024342Y-80766921D01*
X146044869Y-80828500D01*
X146044868Y-80869553D01*
X146024342Y-80931132D01*
X145962764Y-80992710D01*
X145901184Y-81013237D01*
X145860132Y-81013237D01*
X145798552Y-80992710D01*
X145634342Y-80828500D01*
X147992237Y-80982446D02*
X147643290Y-80920868D01*
X147745921Y-81228762D02*
X147314869Y-80797709D01*
X147479079Y-80633499D01*
X147540659Y-80612973D01*
X147581711Y-80612974D01*
X147643290Y-80633499D01*
X147704869Y-80695078D01*
X147725395Y-80756658D01*
X147725395Y-80797709D01*
X147704869Y-80859289D01*
X147540659Y-81023499D01*
X148402763Y-80571920D02*
X148156447Y-80818236D01*
X148279605Y-80695078D02*
X147848553Y-80264026D01*
X147869080Y-80366657D01*
X147869079Y-80448763D01*
X147848553Y-80510342D01*
X148238552Y-79874027D02*
X148279604Y-79832974D01*
X148341184Y-79812448D01*
X148382237Y-79812448D01*
X148443816Y-79832974D01*
X148546447Y-79894553D01*
X148649078Y-79997185D01*
X148710657Y-80099816D01*
X148731183Y-80161395D01*
X148731183Y-80202448D01*
X148710657Y-80264026D01*
X148669604Y-80305079D01*
X148608026Y-80325605D01*
X148566973Y-80325605D01*
X148505394Y-80305079D01*
X148402763Y-80243500D01*
X148300131Y-80140869D01*
X148238553Y-80038237D01*
X148218026Y-79976659D01*
X148218026Y-79935606D01*
X148238552Y-79874027D01*
X137185401Y-93384914D02*
X137156372Y-93413943D01*
X137069286Y-93442971D01*
X137011229Y-93442971D01*
X136924144Y-93413943D01*
X136866086Y-93355886D01*
X136837058Y-93297829D01*
X136808029Y-93181714D01*
X136808029Y-93094629D01*
X136837058Y-92978514D01*
X136866086Y-92920457D01*
X136924144Y-92862400D01*
X137011229Y-92833371D01*
X137069286Y-92833371D01*
X137156372Y-92862400D01*
X137185401Y-92891429D01*
X137533744Y-93094629D02*
X137475686Y-93065600D01*
X137446658Y-93036571D01*
X137417629Y-92978514D01*
X137417629Y-92949486D01*
X137446658Y-92891429D01*
X137475686Y-92862400D01*
X137533744Y-92833371D01*
X137649858Y-92833371D01*
X137707915Y-92862400D01*
X137736944Y-92891429D01*
X137765972Y-92949486D01*
X137765972Y-92978514D01*
X137736944Y-93036571D01*
X137707915Y-93065600D01*
X137649858Y-93094629D01*
X137533744Y-93094629D01*
X137475686Y-93123657D01*
X137446658Y-93152686D01*
X137417629Y-93210743D01*
X137417629Y-93326857D01*
X137446658Y-93384914D01*
X137475686Y-93413943D01*
X137533744Y-93442971D01*
X137649858Y-93442971D01*
X137707915Y-93413943D01*
X137736944Y-93384914D01*
X137765972Y-93326857D01*
X137765972Y-93210743D01*
X137736944Y-93152686D01*
X137707915Y-93123657D01*
X137649858Y-93094629D01*
X138444514Y-117231885D02*
X138473543Y-117260914D01*
X138502571Y-117348000D01*
X138502571Y-117406057D01*
X138473543Y-117493142D01*
X138415486Y-117551200D01*
X138357429Y-117580228D01*
X138241314Y-117609257D01*
X138154229Y-117609257D01*
X138038114Y-117580228D01*
X137980057Y-117551200D01*
X137922000Y-117493142D01*
X137892971Y-117406057D01*
X137892971Y-117348000D01*
X137922000Y-117260914D01*
X137951029Y-117231885D01*
X138502571Y-116651314D02*
X138502571Y-116999657D01*
X138502571Y-116825485D02*
X137892971Y-116825485D01*
X137980057Y-116883542D01*
X138038114Y-116941600D01*
X138067143Y-116999657D01*
X137892971Y-116273943D02*
X137892971Y-116215886D01*
X137922000Y-116157829D01*
X137951029Y-116128800D01*
X138009086Y-116099771D01*
X138125200Y-116070743D01*
X138270343Y-116070743D01*
X138386457Y-116099771D01*
X138444514Y-116128800D01*
X138473543Y-116157829D01*
X138502571Y-116215886D01*
X138502571Y-116273943D01*
X138473543Y-116332000D01*
X138444514Y-116361029D01*
X138386457Y-116390057D01*
X138270343Y-116419086D01*
X138125200Y-116419086D01*
X138009086Y-116390057D01*
X137951029Y-116361029D01*
X137922000Y-116332000D01*
X137892971Y-116273943D01*
D11*
X132802381Y-119959381D02*
X132469047Y-119483190D01*
X132230952Y-119959381D02*
X132230952Y-118959381D01*
X132611905Y-118959381D01*
X132707143Y-119007000D01*
X132754762Y-119054619D01*
X132802381Y-119149857D01*
X132802381Y-119292714D01*
X132754762Y-119387952D01*
X132707143Y-119435571D01*
X132611905Y-119483190D01*
X132230952Y-119483190D01*
X133183333Y-119911762D02*
X133326190Y-119959381D01*
X133564286Y-119959381D01*
X133659524Y-119911762D01*
X133707143Y-119864143D01*
X133754762Y-119768905D01*
X133754762Y-119673667D01*
X133707143Y-119578429D01*
X133659524Y-119530810D01*
X133564286Y-119483190D01*
X133373809Y-119435571D01*
X133278571Y-119387952D01*
X133230952Y-119340333D01*
X133183333Y-119245095D01*
X133183333Y-119149857D01*
X133230952Y-119054619D01*
X133278571Y-119007000D01*
X133373809Y-118959381D01*
X133611905Y-118959381D01*
X133754762Y-119007000D01*
X134040476Y-118959381D02*
X134611905Y-118959381D01*
X134326190Y-119959381D02*
X134326190Y-118959381D01*
M02*
